<?xml version="1.0" encoding="UTF-8"?>
<svg id="Layer_2" data-name="Layer 2" xmlns="http://www.w3.org/2000/svg" xmlns:xlink="http://www.w3.org/1999/xlink" viewBox="0 0 321.4 276.52">
  <defs>
    <style>
      .cls-1, .cls-2 {
        fill: #282119;
      }

      .cls-3 {
        clip-path: url(#clippath);
      }

      .cls-2 {
        stroke-width: 0px;
      }
    </style>
    <clipPath id="clippath">
      <path class="cls-2" d="M160.48,276.52C71.99,276.52,0,214.5,0,138.26S71.99,0,160.48,0s160.49,62.02,160.49,138.26-72,138.26-160.49,138.26ZM160.48,3C73.65,3,3,63.68,3,138.26s70.65,135.26,157.48,135.26,157.49-60.68,157.49-135.26S247.32,3,160.48,3Z"/>
    </clipPath>
  </defs>
  <g id="Layer_1-2" data-name="Layer 1">
    <g>
      <path class="cls-2" d="M182.33,69.66c-1.84-.96-4.64-1.44-8.39-1.44-7.39.08-15.92,1.74-25.6,5-9.67,3.26-19.66,7.83-29.96,13.73-6.93,3.98-13.02,8.12-18.27,12.41-5.25,4.29-9.32,8.41-12.21,12.35-2.89,3.95-4.34,7.43-4.34,10.46,0,7.05,9.19,11.72,27.58,14.02.69.08,1.93.21,3.73.4,2.79.31,5.3.58,7.53.8-7.09,2.11-13.01,4.1-17.78,5.98-4.77,1.88-9.93,4.56-15.48,8.04-5.55,3.41-10.62,7.38-15.2,11.92-4.58,4.54-8.22,9.27-10.92,14.19-2.7,4.92-4.05,9.6-4.05,14.05,0,4.86,1.65,8.84,4.94,11.92,3.29,3.08,8.04,5.05,14.25,5.89,1,.12,2.37.17,4.14.17,2.03,0,4.15-.08,6.35-.23,2.2-.15,4.03-.38,5.49-.69,8.2-1.42,16.37-3.97,24.53-7.67,3.83-1.73,10.29-5.11,16-8.51,4.17-2.48,8.5-4.67,12.8-6.92.71-.37,1.47-.87,1.46-1.77,0-.51-.3-1.02-.77-1.24-.41-.19-.91-.14-1.33.03s-.79.45-1.16.73c-3.31,2.5-6.78,4.8-10.37,6.88-3.66,2.13-7.37,4.2-11.18,6.06-.19.09-.39.19-.58.28-1.98.95-3.99,1.83-6.03,2.64-10.96,4.33-20.99,6.49-30.11,6.49-6.59,0-11.88-1.11-15.89-3.33-4-2.22-6-5.46-6-9.71,0-3.6,1.42-7.81,4.25-12.64,8.54-14.4,25.28-26.58,50.22-36.54,3.49-1.42,5.95-2.45,7.38-3.1,1.44-.65,2.39-1.18,2.87-1.58s.72-.85.72-1.35c0-.65-.26-1.07-.78-1.26-.52-.19-1.79-.36-3.82-.52-12.99-.8-22.04-2.09-27.18-3.85-3.95-1.23-6.94-2.61-8.99-4.17-2.05-1.55-3.07-3.15-3.07-4.8,0-1.42.58-2.97,1.75-4.65,1.17-1.68,2.88-3.66,5.14-5.92,4.71-4.75,10.94-9.59,18.7-14.51,7.76-4.92,15.96-9.4,24.62-13.44,8.66-4.04,16.68-7.26,24.07-9.65,7.39-2.39,13.06-3.59,17.01-3.59,3.26,0,4.88.98,4.88,2.93,0,.8-.31,1.78-.92,2.93-1,1.84-2.62,3.77-4.88,5.8-2.26,2.03-5.13,4.42-8.62,7.18-2.18,1.72-3.75,3.01-4.71,3.85-.96.84-1.44,1.46-1.44,1.84,0,.42.15.77.46,1.03s.69.4,1.15.4c.92,0,3.13-1.59,6.64-4.77,3.51-3.18,6.73-6.59,9.68-10.23,2.95-3.64,4.42-6.36,4.42-8.16s-.92-3.24-2.76-4.19Z"/>
      <path class="cls-2" d="M258.41,162.76c-1.48,2.21-2.61,4.04-3.68,5.39-2.6,3.3-6.04,6.99-10.58,11.24-4.54,4.25-8.98,7.41-12.66,10.17-6.86,5.21-13.83,9.26-20.91,12.15-7.09,2.89-14.46,4.34-22.12,4.34s-13.76-1.66-17.61-4.97c-3.85-3.31-6.35-7.9-7.5-13.76-.31-1.49-.46-3.6-.46-6.32,0-7.35,1.07-14.54,3.22-21.55,2.14-7.01,4.96-14.02,8.45-21.03,4.37-8.69,9.84-17.12,16.43-25.28,6.59-8.16,13.52-15.4,20.8-21.72,7.28-6.32,14.23-11.28,20.86-14.88,6.63-3.6,12.18-5.4,16.66-5.4,3.33,0,6.01.91,8.04,2.73,2.03,1.82,3.04,4.4,3.04,7.73,0,2.45-.62,5.46-1.87,9.02-1.25,3.56-2.91,7.32-5,11.26-2.09,3.95-4.46,7.9-7.12,11.86-2.66,3.96-5.41,7.65-8.25,11.06s-5.55,6.26-8.16,8.56c-2.41,1.92-3.62,3.14-3.62,3.68,0,.34.16.72.49,1.12.32.4.72.6,1.18.6,1.49,0,4.1-2.16,7.81-6.49s7.56-9.62,11.52-15.89,7.39-12.67,10.28-19.22c2.89-6.55,4.34-11.82,4.34-15.8,0-4.4-1.32-7.91-3.96-10.51-2.64-2.6-6.61-3.91-11.89-3.91-5.75,0-12.18,1.65-19.31,4.94-7.12,3.29-14.44,8.05-21.95,14.28-7.51,6.22-14.65,13.59-21.43,22.09-14.4,17.93-23.14,37.19-26.2,57.8-.38,2.53-.57,5.57-.57,9.14,0,4.29.25,7.74.75,10.34,3.03,14.17,11.11,22.06,24.25,23.67,1.65.23,3.26.34,4.83.34,1.84,0,3.73-.15,5.69-.46,17.89-1.88,35.28-11.05,52.17-27.52,3.29-3.22,6.08-6.5,8.78-9.82.81-.99,1.7-2,2.4-2.91,1.49-1.93,3.04-3.58,4.07-5.17.25-.39.15-.95-.19-1.15-.18-.11-.7-.27-1.02.23Z"/>
    </g>
    <g>
      <path class="cls-1" d="M160.48,276.52C71.99,276.52,0,214.5,0,138.26S71.99,0,160.48,0s160.49,62.02,160.49,138.26-72,138.26-160.49,138.26ZM160.48,3C73.65,3,3,63.68,3,138.26s70.65,135.26,157.48,135.26,157.49-60.68,157.49-135.26S247.32,3,160.48,3Z"/>
      <g class="cls-3">
        <path class="cls-2" d="M321.4,276.52H0V0h321.4v276.52ZM3,273.52h315.4V3H3v270.52Z"/>
      </g>
    </g>
  </g>
</svg>